<!-- Created with Inkscape (http://www.inkscape.org/) -->
<!-- Bulk QR Generator - Copyright (C) 2022, TRMSC - https://trmsc1.wordpress.com/ -->
<!-- Licensed under the MIT license - http://www.opensource.org/licenses/mit-license.php -->

<svg id="logo" style="filter: drop-shadow(2px 2px 1px #a3a3a3);" width="166.85mm" height="71.014mm" version="1.1" viewBox="0 0 166.85 71.014" xmlns="http://www.w3.org/2000/svg">
 <a id="logo_bg" style="transform-origin: 50% 50%;">
  <g transform="translate(169.93 -239.95)">
   <g stroke-width=".26458" aria-label="BULK GENERATOR">
    <path d="m-143.76 279.27 13.221 0.34727q12.129-1.3891 13.444-8.8305 0.22324-0.86817 0.22324-1.8852 0-2.4557-1.5875-4.0184-1.5627-1.5875-3.7455-2.406-2.158-0.84336-6.2012-2.0092 1.5131-2.5053 1.5131-4.6633 0-2.3068-1.6619-4.316-2.3564-2.1828-4.9857-3.051-2.6045-0.86816-5.5811-0.86816-2.3812 0-6.4492 0.5209zm4.2664-22.448q1.7859-0.19844 3.5719-0.19844 3.8943 0 4.7129 1.5131 0 1.4139-8.2352 1.9348zm-0.19843 7.2182q3.6711 0.17364 6.6725 0.57051 3.0262 0.37207 5.3826 1.2154 2.3812 0.84336 3.8695 2.3564 1.4883 1.4883 1.6619 3.8199 0 1.1162-1.8107 1.9844-1.8107 0.84336-4.2912 0.96739l-11.782-0.29766z"/>
    <path d="m-94.745 244.94 5.5811 0.44649q0.37207 3.7951 0.71934 8.508 0.34726 4.7129 0.34726 8.2104 0 9.0785-2.2324 12.03-1.8355 2.4805-5.4818 4.2168t-7.367 1.7363q-4.6385 0-7.119-2.9022-2.1828-2.6293-3.3238-8.5576-1.141-5.9531-1.4883-11.832-0.32246-5.9035-0.5209-13.94l12.105 0.91777q0.0496 3.8447 0.14883 8.1111 0.0992 4.2664 0.37207 8.9297 0.27285 4.6385 0.64492 7.6646 0.37207 3.0014 0.96738 3.944 0.81856 1.265 2.1828 1.265 1.2898 0 2.6293-1.1906 1.3643-1.2154 2.3564-3.4478 0.96738-2.3068 0.96738-8.632 0-2.7285-0.14883-5.209-0.12402-2.4805-0.37207-4.8617-0.22324-2.3812-0.49609-3.8943-0.27285-1.5131-0.47129-1.5131z"/>
    <path d="m-85.642 285.13-0.37207-38.621 12.055-0.34727-4.5889 32.965 14.858-2.1332v3.3982z"/>
    <path d="m-50.593 265.21-0.91777 15.949-6.2012-0.34727-3.7455-38.671 12.129-0.19843-0.79375 14.486 14.759-13.717 6.7717 10.517-18.281 7.1438 19.199 9.7482-5.4322 9.9715z"/>
    <path d="m-136.63 303.59-1.0142 3.0978q-1.367-0.14332-2.4033-0.56224-1.0363-0.41892-1.6757-1.0473-0.62839-0.63941-0.93707-1.4442-0.30868-0.8158-0.30868-1.7308 0-0.41893 0.0661-0.904 0.11024-0.78272 0.81579-1.2568 0.71659-0.47405 1.7859-0.66146 1.0694-0.18741 2.4584-0.18741 1.0363 0 2.0615 0.0882 1.0253 0.0772 2.701 0.25356 0.42995-1.6867 0.61736-2.4143 0.18742-0.73863 0.452-1.6978 0.26458-0.97014 0.28663-0.97014-2.8553-0.47404-4.8838-0.47404-1.3339 0-2.2931 0.17638-0.94809 0.16537-1.6536 0.452-0.70555 0.28663-1.2788 0.63941-0.57326 0.34176-1.3009 0.79375-0.84887 0.50712-1.4111 1.9623-0.55121 1.4442-0.55121 3.1309 0 1.4111 0.4079 2.701 0.41892 1.2788 1.2678 2.271 0.73863 0.8158 1.6757 1.345 0.94809 0.51814 2.0174 0.80478 1.0694 0.28663 2.1277 0.39687 1.0583 0.12127 2.2379 0.12127 1.1576 0 2.5025-0.0882l0.90399-5.424-7.5847-1.6757-0.70555 1.9734z"/>
    <path d="m-118.88 307.85-8.4887-0.30868-3.5278-12.127 10.032-2.3261 1.1024 4.5641-7.1989 1.8741 0.47404 2.4584 7.1327-1.5324 0.29765 2.701-7.1438 0.29765 0.47404 2.2379 7.0666-0.18741z"/>
    <path d="m-114.62 307.91h-2.701l-0.3638-16.327 2.9766-0.29766 5.6444 8.0588 0.38585-7.4965 2.8663-0.26458-0.74965 16.503-2.9545 0.0661-4.7405-6.2508z"/>
    <path d="m-93.01 307.85-8.4887-0.30868-3.5278-12.127 10.032-2.3261 1.1024 4.5641-7.1989 1.8741 0.47405 2.4584 7.1327-1.5324 0.29766 2.701-7.1438 0.29765 0.47404 2.2379 7.0666-0.18741z"/>
    <path d="m-90.474 307.95-1.6316-16.603q0.29766-0.022 0.90399-0.022 1.9293 0 3.7372 0.46302t3.2411 1.378q1.4442 0.91502 2.282 2.249 0.83785 1.3229 0.83785 3.0207 0 0.95912-0.28663 1.7749-0.28663 0.81579-1.0142 1.4332-0.7276 0.60633-1.9734 0.85989l3.4506 4.3326-1.0583 1.2016-6.0744-5.0602-0.08819 5.1924zm2.6789-10.506-0.13229 3.3624q0.3638 0.0441 0.88194 0.11024 0.51814 0.0551 1.1135 0.0992 0.60634 0.0441 0.89297 0.0441 0.93707 0 1.4883-0.24254 0.55122-0.24253 0.66146-0.83785 0-1.2898-1.5324-1.8741-1.5214-0.59531-3.3734-0.66146z"/>
    <path d="m-80.255 307.25 2.4143 0.60634 0.49609-2.4584 4.2223 0.11025 1.2016 3.2081 4.7625-1.4662-7.265-14.045-2.9876-0.11024zm4.2885-9.051 1.9182 4.8286-2.9104 0.42994z"/>
    <path d="m-56.156 308.11-2.4143 0.62838-3.8806-13.571-3.2963 0.68351-0.70556-1.8521 11.377-2.7781 0.59531 2.282-3.4616 0.71658z"/>
    <path d="m-54.304 300.31q-0.13229-0.83784-0.13229-1.7749 0-1.4993 0.42995-2.8553 0.44097-1.367 1.4773-2.3812 1.0363-1.0253 2.723-1.4111 0.8599-0.17639 1.5985-0.17639 1.5985 0 3.0537 0.70555 1.4662 0.69454 2.5797 2.0395 1.1245 1.345 1.6867 3.1309 0.34175 1.1465 0.34175 2.2049 0 1.5324-0.59531 2.9655-0.59531 1.4221-1.4552 2.4143-0.8599 0.98116-1.6536 1.4001-1.7859 0.90399-3.638 0.90399-1.0804 0-2.0836-0.3638-1.0032-0.37483-1.8741-1.2127-0.87092-0.84887-1.5103-2.2269-0.62839-1.378-0.94809-3.3624zm5.424-5.8208q-1.2457 0.42995-2.0174 1.4442-0.76068 1.0142-0.76068 2.1056 0 0.23152 0.08819 0.67249 0.31971 1.1686 1.0804 1.7198 0.7717 0.54019 1.7639 0.54019 0.89297 0 1.7198-0.38585 1.2457-0.59531 1.8411-1.4111 0.59531-0.82682 0.59531-1.8631 0-0.69453-0.22049-1.4001-0.20946-0.68351-0.94809-1.1796t-1.7639-0.49609q-0.59531 0-1.378 0.25355z"/>
    <path d="m-37.095 307.95-1.6316-16.603q0.29766-0.022 0.90399-0.022 1.9293 0 3.7372 0.46302t3.2411 1.378q1.4442 0.91502 2.282 2.249 0.83785 1.3229 0.83785 3.0207 0 0.95912-0.28663 1.7749-0.28663 0.81579-1.0142 1.4332-0.7276 0.60633-1.9734 0.85989l3.4506 4.3326-1.0583 1.2016-6.0744-5.0602-0.08819 5.1924zm2.6789-10.506-0.13229 3.3624q0.3638 0.0441 0.88195 0.11024 0.51814 0.0551 1.1135 0.0992 0.60634 0.0441 0.89297 0.0441 0.93707 0 1.4883-0.24254 0.55122-0.24253 0.66146-0.83785 0-1.2898-1.5324-1.8741-1.5214-0.59531-3.3734-0.66146z"/>
   </g>
  </g>
 </a>
 <a id="logo_qr" style="transform-origin: 50% 50%;">
  <g transform="translate(169.93 -239.95)">
   <g transform="matrix(1.9415 0 0 .51505 2.5329 -1.673)" fill="#f5deb3" stroke="#0a0600" aria-label="QR">
    <path d="m-48.127 568.08q0.47702 0 0.71553 0.47619 0.28621 0.52379 0.28621 1.3333 0 1.5238-0.81093 3-1.6219 2.9523-4.2932 4.5237-2.6236 1.619-5.3903 1.619-2.8144 0-4.7225-0.90475-1.9081-0.85712-3.2437-2.619-1.3356-1.7143-2.5759-4.5714-1.2879-2.9523-2.1466-4.4285-0.81093-1.4286-1.7173-2.0952-0.90634-0.66666-2.3374-0.95237-5.2949-1.0476-8.5386-5.238-3.196-4.1904-3.196-10.809 0-7.238 2.6236-12.762 2.6713-5.5237 7.203-8.5237 4.5794-2.9999 10.113-2.9999 4.2455 0 7.6323 1.9047 3.4345 1.9047 5.438 5.619 2.0035 3.6666 2.0035 8.8094 0 5.9999-1.8127 10.809-1.8127 4.8094-5.0087 7.9999-3.196 3.1904-7.3461 4.5237 1.1925 0.66665 2.0512 1.9524 0.90634 1.2857 1.9081 3.7142 1.0971 2.6666 2.3374 3.8095 1.288 1.1428 3.1483 1.1428 1.5742 0 3.0529-1.0952 1.4788-1.0476 3.3391-3.4761 0.57242-0.76189 1.2879-0.76189zm-22.42-9.9522q3.7207 0 6.5352-2.2857 2.8621-2.2857 4.3886-6.3332 1.5265-4.0952 1.5265-9.2379 0-5.6666-2.3851-8.5713-2.3851-2.9523-6.1535-2.9523-3.6253 0-6.4874 2.3333-2.8144 2.2857-4.3886 6.3332-1.5742 4.0476-1.5742 9.1903 0 5.6666 2.3851 8.6189 2.3851 2.9047 6.1535 2.9047z" stroke-width="1.2955"/>
    <path d="m-7.1034 557.89q0.61681 0 0.94894 0.61855 0.37958 0.61855 0.37958 1.701 0 2.0103-0.90149 3.1959-2.2775 2.9897-4.6024 4.6392-2.3249 1.5979-5.5039 1.5979-3.0841 0-5.2666-1.8041-2.1351-1.8041-4.0804-6.1855-1.5658-3.5052-2.4672-5.1546-0.90149-1.701-1.803-2.4227-0.85405-0.72165-2.1351-0.87629-0.18979 1.0825-1.0913 6.8041-0.37958 2.5773-0.47447 3.1443-0.47447 3.1443-1.8979 4.8453-1.4234 1.6495-4.3177 1.6495-3.179 0-5.6462-2.0103-2.4198-2.0619-3.7483-5.6701-1.3285-3.6598-1.3285-8.2989 0-8.6598 2.7519-14.948 2.7994-6.2886 7.7813-9.5876 5.0294-3.3505 11.577-3.3505 4.5549 0 7.639 1.4948 3.0841 1.4948 4.5549 4.1237 1.5183 2.6289 1.5183 5.9278 0 2.8866-1.2811 5.6701-1.2336 2.7319-3.7483 4.8453-2.5147 2.1134-6.1207 3.1443 2.2775 0.6701 3.5111 2.165 1.2336 1.4948 2.4672 4.3814 1.3285 3.0928 2.6096 4.536 1.3285 1.4433 3.0366 1.4433 1.5183 0 2.8943-1.0825 1.376-1.134 3.4636-3.8144 0.56936-0.72164 1.2811-0.72164zm-31.979-4.7422q-1.6132 0-2.23-0.82475-0.56936-0.82474-0.56936-1.8557 0-1.2371 0.71171-1.9588 0.75915-0.72166 1.7081-0.72166h1.1862q0.75915-5.0515 1.4234-8.7113 0.61681-3.3505 3.9856-3.3505 2.7045 0 2.7045 2.6289 0 0.567-0.04745 0.87628l-1.4234 8.5567q2.5621-0.15464 4.6498-1.3402 2.1351-1.1856 3.3687-3.2989 1.2811-2.1134 1.2811-4.7938 0-3.2474-2.0402-5.1031t-5.9783-1.8557q-4.6498 0-8.1609 2.5258-3.4636 2.4742-5.409 7.4227-1.9453 4.8969-1.9453 11.959 0 3.299 0.61681 5.6701 0.61681 2.3711 1.5183 3.5567 0.9015 1.1856 1.7081 1.1856 0.61681 0 0.99639-0.6701 0.42702-0.67011 0.66426-2.1649z" stroke-width="1.3443"/>
   </g>
  </g>
 </a>
</svg>
